<svg version="1.1" xmlns="http://www.w3.org/2000/svg" xmlns:xlink="http://www.w3.org/1999/xlink" width="51.5687" height="51.5687" viewBox="0,0,51.5687,51.5687"><g transform="translate(-214.21565,-154.21565)"><g data-paper-data="{&quot;isPaintingLayer&quot;:true}" fill-rule="nonzero" stroke-linecap="butt" stroke-linejoin="miter" stroke-miterlimit="10" stroke-dasharray="" stroke-dashoffset="0" style="mix-blend-mode: normal"><path d="M215.71565,180c0,-13.41188 10.87247,-24.28435 24.28435,-24.28435c13.41188,0 24.28435,10.87247 24.28435,24.28435c0,13.41188 -10.87247,24.28435 -24.28435,24.28435c-13.41188,0 -24.28435,-10.87247 -24.28435,-24.28435z" fill-opacity="0.39995" fill="#00631f" stroke-opacity="0.5" stroke="#00b008" stroke-width="3"/><path d="M234.21054,182.61021l4.72899,-11.75547l6.96881,2.80342l-4.72899,11.75547z" fill="#00ff1e" stroke="none" stroke-width="0"/><path d="M241.08032,167.3474c0.36216,-2.29731 2.51808,-3.86607 4.8154,-3.50391c2.29731,0.36216 3.86606,2.51809 3.50391,4.8154c-0.36216,2.29731 -2.51809,3.86606 -4.8154,3.5039c-2.29731,-0.36216 -3.86606,-2.51808 -3.5039,-4.81539z" fill="#00ff1e" stroke="none" stroke-width="0"/><path d="M244.15142,198.14738l-5.45974,-11.01897l4.47677,-1.93l5.45974,11.01897z" fill="#00ff1e" stroke="none" stroke-width="0"/><path d="M231.2937,179.31217c0,0 -3.72462,-7.64379 -2.6229,-9.00947c0.97876,-1.21326 5.74345,-2.10054 5.74345,-2.10054l4.65437,3.75477c0,0 -4.71305,0.06596 -5.27496,1.4335c-0.52845,1.2861 1.99769,6.54244 1.99769,6.54244z" fill="#00ff1e" stroke="none" stroke-width="0"/><path d="M255.18555,183.07651c0,0 -4.27556,0.90846 -5.96668,0.33033c-1.56997,-0.53672 -3.84363,-3.68415 -3.84363,-3.68415l-0.97748,-3.9858l5.68173,-1.39338l1.04597,4.26508l4.80248,0.92198z" fill="#00ff1e" stroke="none" stroke-width="0"/><path d="M225.47228,184.06356l4.17391,1.6121l3.65111,-3.14503l3.98371,4.62474l-3.73225,3.21492c0,0 -3.07316,1.34881 -4.44288,1.20298c-1.71572,-0.18266 -4.53503,-2.09444 -4.53503,-2.09444z" fill="#00ff1e" stroke="none" stroke-width="0"/></g></g></svg>