<svg version="1.1" xmlns="http://www.w3.org/2000/svg" xmlns:xlink="http://www.w3.org/1999/xlink" width="642.90136" height="482.65676" viewBox="0,0,642.90136,482.65676"><defs><radialGradient cx="315.44591" cy="30.14233" r="52.30046" gradientUnits="userSpaceOnUse" id="color-1"><stop offset="0" stop-color="#866000"/><stop offset="1" stop-color="#866000" stop-opacity="0"/></radialGradient></defs><g transform="translate(72.99729,53.6)"><g data-paper-data="{&quot;isPaintingLayer&quot;:true}" fill-rule="nonzero" stroke-linejoin="miter" stroke-miterlimit="10" stroke-dasharray="" stroke-dashoffset="0" style="mix-blend-mode: normal"><path d="M-48.49998,375v-150h97v150z" fill="#6c6c6c" stroke="none" stroke-width="0" stroke-linecap="butt"/><path d="M-48.49998,135v-150h97v150z" fill="#6c6c6c" stroke="none" stroke-width="0" stroke-linecap="butt"/><path d="M431.50002,375v-150h97v150z" fill="#6c6c6c" stroke="none" stroke-width="0" stroke-linecap="butt"/><path d="M431.50002,135v-150h97v150z" fill="#6c6c6c" stroke="none" stroke-width="0" stroke-linecap="butt"/><path d="M-14,56.5v-83h508v83z" fill="#6c6c6c" stroke="none" stroke-width="0" stroke-linecap="butt"/><path d="M-14,401.5v-83h508v83z" fill="#6c6c6c" stroke="none" stroke-width="0" stroke-linecap="butt"/><path d="M510.25002,227.25h-77v93.5h-387l-0.98472,-93.70599l-77.54508,-0.06472l1.0298,-92.22929l77.5,0.5v-79.5l2.5,-2h384v80h81.5" fill="none" stroke="#818181" stroke-width="4.5" stroke-linecap="round"/><path d="M-72.12972,402.55676v-150h97v150z" fill="#505050" stroke="none" stroke-width="0" stroke-linecap="butt"/><path d="M-72.99729,113.97298v-150h97v150z" fill="#505050" stroke="none" stroke-width="0" stroke-linecap="butt"/><path d="M455.58652,113.10541v-150h97v150z" fill="#505050" stroke="none" stroke-width="0" stroke-linecap="butt"/><path d="M-22.88107,29.4v-83h508v83z" fill="#505050" stroke="none" stroke-width="0" stroke-linecap="butt"/><path d="M4.01352,429.05676v-83h508v83z" fill="#505050" stroke="none" stroke-width="0" stroke-linecap="butt"/><path d="M367.03208,38.75655c-1.91642,11.47648 -26.56591,16.92329 -55.05617,12.16579c-28.49026,-4.7575 -50.03261,-17.91775 -48.11618,-29.39423c1.91642,-11.47648 26.56591,-16.92329 55.05617,-12.16579c28.49026,4.7575 50.03261,17.91775 48.11618,29.39423z" fill="url(#color-1)" stroke="none" stroke-width="0" stroke-linecap="butt"/><path d="M457.52704,400.15946v-150h97v150z" fill="#505050" stroke="none" stroke-width="0" stroke-linecap="butt"/><path d="M-51.06891,113.75676h76.34595v-85.88918h428.57838v85.88919h111.04865" fill="none" stroke="#825200" stroke-width="10" stroke-linecap="round"/><path d="M562.96353,254.96487h-111.04865v85.88919h-428.57838v-85.88918h-76.34594" data-paper-data="{&quot;index&quot;:null}" fill="none" stroke="#825200" stroke-width="10" stroke-linecap="round"/><path d="M291.38726,33.2104v15.72007" fill="none" stroke="#ffb800" stroke-width="0.5" stroke-linecap="round"/><path d="M296.04505,33.2104v7.18077" fill="none" stroke="#ffb800" stroke-width="0.5" stroke-linecap="round"/><path d="M278.19016,30.49335v6.9867" fill="none" stroke="#ffb800" stroke-width="0.5" stroke-linecap="round"/><path d="M314.2881,35.92745v7.95707" fill="none" stroke="#ffb800" stroke-width="0.5" stroke-linecap="round"/><path d="M322.05109,36.89782v1.94075" fill="none" stroke="#ffb800" stroke-width="0.5" stroke-linecap="round"/><path d="M339.71193,40.39117v9.3156" fill="none" stroke="#ffb800" stroke-width="0.5" stroke-linecap="round"/><path d="M348.83345,43.88452v-2.91112" fill="none" stroke="#ffb800" stroke-width="0.5" stroke-linecap="round"/><path d="M356.9846,50.67714v-8.34522" fill="none" stroke="#ffb800" stroke-width="0.5" stroke-linecap="round"/><path d="M562.46353,259.96487h-107.04865v85.88919h-436.57838v-85.88918h-72.34594" data-paper-data="{&quot;index&quot;:null}" fill="none" stroke="#a76a00" stroke-width="10" stroke-linecap="round"/><path d="M-51.50944,109.85405h72.34594v-85.88918h436.57838v85.88919h107.04865" data-paper-data="{&quot;index&quot;:null}" fill="none" stroke="#a76a00" stroke-width="10" stroke-linecap="round"/><path d="M-51.50944,109.85405h72.34594v-85.88918h436.57838v85.88919h107.04865" data-paper-data="{&quot;index&quot;:null}" fill="none" stroke="#825200" stroke-width="5" stroke-linecap="round"/><text transform="translate(273.00574,29.54646) rotate(9.2372) scale(0.9366,0.52102) skewX(0.00002)" font-size="40" xml:space="preserve" fill="#ffb800" fill-rule="nonzero" stroke="#000000" stroke-width="0" stroke-linecap="butt" stroke-linejoin="miter" stroke-miterlimit="10" stroke-dasharray="" stroke-dashoffset="0" font-family="Curly" font-weight="normal" text-anchor="start" style="mix-blend-mode: normal"><tspan x="0" dy="0">HIDE</tspan></text><path d="M435.73741,323.22343l44.33333,51.05052" fill="none" stroke="#2f2f2f" stroke-width="1" stroke-linecap="round"/><path d="M562.46353,259.96487h-107.04865v85.88919h-436.57838v-85.88918h-72.34594" data-paper-data="{&quot;index&quot;:null}" fill="none" stroke="#825200" stroke-width="5" stroke-linecap="round"/></g></g></svg>