<svg version="1.1" xmlns="http://www.w3.org/2000/svg" xmlns:xlink="http://www.w3.org/1999/xlink" width="627.52433" height="482.65676" viewBox="0,0,627.52433,482.65676"><defs><linearGradient x1="102.19032" y1="79.55923" x2="102.19032" y2="90.53565" gradientUnits="userSpaceOnUse" id="color-1"><stop offset="0" stop-color="#28e800"/><stop offset="1" stop-color="#28e800" stop-opacity="0"/></linearGradient><linearGradient x1="100.87019" y1="79.02934" x2="100.87019" y2="90.96036" gradientUnits="userSpaceOnUse" id="color-2"><stop offset="0" stop-color="#28e800"/><stop offset="1" stop-color="#0e5d00"/></linearGradient><linearGradient x1="100.87019" y1="71.53955" x2="100.87019" y2="83.47058" gradientUnits="userSpaceOnUse" id="color-3"><stop offset="0" stop-color="#28e800"/><stop offset="1" stop-color="#0e5d00"/></linearGradient><linearGradient x1="117.98346" y1="85.02161" x2="125.27954" y2="85.02161" gradientUnits="userSpaceOnUse" id="color-4"><stop offset="0" stop-color="#2bff00"/><stop offset="1" stop-color="#2bff00" stop-opacity="0"/></linearGradient><linearGradient x1="117.91888" y1="77.53182" x2="125.21497" y2="77.53182" gradientUnits="userSpaceOnUse" id="color-5"><stop offset="0" stop-color="#199400"/><stop offset="1" stop-color="#199400" stop-opacity="0"/></linearGradient><linearGradient x1="187.93107" y1="46.0408" x2="187.93107" y2="61.09786" gradientUnits="userSpaceOnUse" id="color-6"><stop offset="0" stop-color="#777777"/><stop offset="1" stop-color="#353535"/></linearGradient><linearGradient x1="194.60731" y1="46.0408" x2="194.60731" y2="61.09786" gradientUnits="userSpaceOnUse" id="color-7"><stop offset="0" stop-color="#454545"/><stop offset="1" stop-color="#1b1b1b"/></linearGradient><linearGradient x1="192.76068" y1="50.73744" x2="192.76068" y2="55.41595" gradientUnits="userSpaceOnUse" id="color-8"><stop offset="0" stop-color="#888888"/><stop offset="1" stop-color="#000000"/></linearGradient><linearGradient x1="198.79774" y1="51.15451" x2="198.79774" y2="54.70571" gradientUnits="userSpaceOnUse" id="color-9"><stop offset="0" stop-color="#858585"/><stop offset="1" stop-color="#1c1c1c"/></linearGradient><linearGradient x1="198.72668" y1="57.12052" x2="198.72668" y2="59.96148" gradientUnits="userSpaceOnUse" id="color-10"><stop offset="0" stop-color="#858585"/><stop offset="1" stop-color="#1c1c1c"/></linearGradient><linearGradient x1="195.419" y1="57.74958" x2="195.419" y2="59.19036" gradientUnits="userSpaceOnUse" id="color-11"><stop offset="0" stop-color="#858585"/><stop offset="1" stop-color="#1c1c1c"/></linearGradient><linearGradient x1="193.18683" y1="57.74959" x2="193.18683" y2="59.19037" gradientUnits="userSpaceOnUse" id="color-12"><stop offset="0" stop-color="#858585"/><stop offset="1" stop-color="#1c1c1c"/></linearGradient><linearGradient x1="190.90392" y1="57.80031" x2="190.90392" y2="59.24109" gradientUnits="userSpaceOnUse" id="color-13"><stop offset="0" stop-color="#858585"/><stop offset="1" stop-color="#1c1c1c"/></linearGradient></defs><g transform="translate(72.9973,53.6)"><g data-paper-data="{&quot;isPaintingLayer&quot;:true}" fill-rule="nonzero" stroke-linejoin="miter" stroke-miterlimit="10" stroke-dasharray="" stroke-dashoffset="0" style="mix-blend-mode: normal"><path d="M-48.49997,135v-150h97v150z" fill="#6c6c6c" stroke="none" stroke-width="0" stroke-linecap="butt"/><path d="M-48.49997,375.00001v-150h97v150z" fill="#6c6c6c" stroke="none" stroke-width="0" stroke-linecap="butt"/><path d="M357.54124,278.97299v39.05679h-199.97075v-39.05679z" data-paper-data="{&quot;index&quot;:null}" fill="#191919" stroke="none" stroke-width="0" stroke-linecap="butt"/><path d="M342.58807,305.30843v12.94454h-169.39486v-12.94454z" data-paper-data="{&quot;index&quot;:null}" fill="#222222" stroke="none" stroke-width="0" stroke-linecap="butt"/><path d="M342.36489,278.52664v26.7818h-169.17168v-26.7818z" data-paper-data="{&quot;index&quot;:null}" fill="#0d0d0d" stroke="none" stroke-width="0" stroke-linecap="butt"/><path d="M153.11968,94.69269v-39.05679h199.97075v39.05679z" fill="#191919" stroke="none" stroke-width="0" stroke-linecap="butt"/><path d="M168.74243,68.35725v-12.94454h169.39486v12.94454z" fill="#222222" stroke="none" stroke-width="0" stroke-linecap="butt"/><path d="M168.74243,95.13904v-26.7818h169.17168v26.7818z" fill="#0d0d0d" stroke="none" stroke-width="0" stroke-linecap="butt"/><path d="M431.50001,375v-150h97v150z" fill="#6c6c6c" stroke="none" stroke-width="0" stroke-linecap="butt"/><path d="M431.50001,135v-150h97v150z" fill="#6c6c6c" stroke="none" stroke-width="0" stroke-linecap="butt"/><path d="M-14.00001,56.5v-83h508v83z" fill="#6c6c6c" stroke="none" stroke-width="0" stroke-linecap="butt"/><path d="M-14.00001,401.5v-83h508v83z" fill="#6c6c6c" stroke="none" stroke-width="0" stroke-linecap="butt"/><path d="M455.58653,113.10541v-150h97v150z" fill="#505050" stroke="none" stroke-width="0" stroke-linecap="butt"/><path d="M-23.28109,29.4v-83h508v83z" fill="#505050" stroke="none" stroke-width="0" stroke-linecap="butt"/><path d="M4.01351,429.05676v-83h508v83z" fill="#505050" stroke="none" stroke-width="0" stroke-linecap="butt"/><path d="M457.52703,400.15946v-150h97v150z" fill="#505050" stroke="none" stroke-width="0" stroke-linecap="butt"/><path d="M487.9041,378.96223l-51.33333,-55.16418" fill="none" stroke="#2f2f2f" stroke-width="1" stroke-linecap="round"/><path d="M42.87026,323.06667l-34.33333,46" fill="none" stroke="#2f2f2f" stroke-width="1" stroke-linecap="round"/><path d="M-12.46306,-12.6l57,64.66667" fill="none" stroke="#2f2f2f" stroke-width="1" stroke-linecap="round"/><path d="M435.66505,131.06667l71.33333,-61" fill="none" stroke="#2f2f2f" stroke-width="1" stroke-linecap="round"/><path d="M437.01764,229.72838l62,62.5" fill="none" stroke="#2f2f2f" stroke-width="1" stroke-linecap="round"/><path d="M434.51767,50.72838l56.5,-56" fill="none" stroke="#2f2f2f" stroke-width="1" stroke-linecap="round"/><path d="M75.9115,92.35644v-14.07564h52.69972v14.07564z" fill="#191919" stroke="none" stroke-width="0" stroke-linecap="butt"/><path d="M76.90582,90.53565v-10.97641h50.569v10.97641z" fill="url(#color-1)" stroke="none" stroke-width="0" stroke-linecap="butt"/><path d="M83.74996,88.4341v-7.46306l27.0753,0.10847l2.3322,-2.05017l4.76968,0.03343l0.0633,11.89759l-4.65311,-0.02275l-2.51208,-2.39504z" fill="url(#color-2)" stroke="none" stroke-width="0" stroke-linecap="butt"/><path d="M83.74996,80.94431v-7.46306l27.0753,0.10847l2.3322,-2.05017l4.76968,0.03343l0.0633,11.89759l-4.65311,-0.02275l-2.51208,-2.39505z" fill="url(#color-3)" stroke="none" stroke-width="0" stroke-linecap="butt"/><path d="M117.98346,90.96179v-11.88036l7.29608,-3.7449v16.98116z" fill="url(#color-4)" stroke="none" stroke-width="0" stroke-linecap="butt"/><path d="M117.91888,83.472v-11.88036l7.29608,-3.74489v18.40164z" fill="url(#color-5)" stroke="none" stroke-width="0" stroke-linecap="butt"/><path d="M74.06487,79.41718l10.22744,-23.72197h34.09146l12.21611,23.72197z" fill="#353535" stroke="none" stroke-width="0" stroke-linecap="butt"/><path d="M510.25002,227.25h-77v93.5h-387l-0.98472,-93.70599l-77.54508,-0.06472l1.0298,-92.22929l77.5,0.5v-79.5l2.5,-2h384v80h81.5" fill="none" stroke="#818181" stroke-width="4.5" stroke-linecap="round"/><path d="M174.57858,61.09786c0,0 -0.14205,-5.09412 -0.14205,-7.67058c0,-2.43452 0.14205,-7.38648 0.14205,-7.38648h26.84702v15.05706z" fill="url(#color-6)" stroke="none" stroke-width="0" stroke-linecap="butt"/><path d="M187.72024,61.09786c0,0 0.88926,-2.39522 0.88926,-7.67058c0,-5.70162 -0.88926,-7.38648 -0.88926,-7.38648h13.84741v15.05706z" fill="url(#color-7)" stroke="none" stroke-width="0" stroke-linecap="butt"/><path d="M175.57294,48.88175v-0.85229h11.36382v0.85229z" fill="#000000" stroke="none" stroke-width="0" stroke-linecap="butt"/><path d="M175.57294,50.30223v-0.85229h11.36382v0.85229z" fill="#000000" stroke="none" stroke-width="0" stroke-linecap="butt"/><path d="M175.57294,51.72271v-0.85229h11.36382v0.85229z" fill="#000000" stroke="none" stroke-width="0" stroke-linecap="butt"/><path d="M175.57294,53.14319v-0.85229h11.36382v0.85229z" fill="#000000" stroke="none" stroke-width="0" stroke-linecap="butt"/><path d="M175.57294,54.56366v-0.85229h11.36382v0.85229z" fill="#000000" stroke="none" stroke-width="0" stroke-linecap="butt"/><path d="M175.57294,55.98413v-0.85229h11.36382v0.85229z" fill="#000000" stroke="none" stroke-width="0" stroke-linecap="butt"/><path d="M175.57294,57.40461v-0.85229h11.36382v0.85229z" fill="#000000" stroke="none" stroke-width="0" stroke-linecap="butt"/><path d="M175.57294,58.82509v-0.85229h11.36382v0.85229z" fill="#000000" stroke="none" stroke-width="0" stroke-linecap="butt"/><path d="M175.43084,47.60332v-0.85229h11.36382v0.85229z" fill="#000000" stroke="none" stroke-width="0" stroke-linecap="butt"/><path d="M175.57294,60.24557v-0.85229h11.36382v0.85229z" fill="#000000" stroke="none" stroke-width="0" stroke-linecap="butt"/><path d="M190.20385,55.41595v-4.67851h5.11372v4.67851z" fill="#000000" stroke="url(#color-8)" stroke-width="1" stroke-linecap="butt"/><path d="M197.02212,52.93011c0,-0.98063 0.79496,-1.7756 1.7756,-1.7756c0.98063,0 1.7756,0.79496 1.7756,1.7756c0,0.98063 -0.79496,1.7756 -1.7756,1.7756c-0.98063,0 -1.7756,-0.79496 -1.7756,-1.7756z" fill="url(#color-9)" stroke="none" stroke-width="1" stroke-linecap="butt"/><path d="M197.3062,58.541c0,-0.78451 0.63597,-1.42048 1.42048,-1.42048c0.78451,0 1.42048,0.63597 1.42048,1.42048c0,0.78451 -0.63597,1.42048 -1.42048,1.42048c-0.78451,0 -1.42048,-0.63597 -1.42048,-1.42048z" fill="url(#color-10)" stroke="none" stroke-width="1" stroke-linecap="butt"/><path d="M194.69863,58.46997c0,-0.39785 0.32253,-0.72039 0.72039,-0.72039c0.39785,0 0.72039,0.32253 0.72039,0.72039c0,0.39785 -0.32253,0.72039 -0.72039,0.72039c-0.39785,0 -0.72039,-0.32253 -0.72039,-0.72039z" fill="url(#color-11)" stroke="none" stroke-width="1" stroke-linecap="butt"/><path d="M192.46646,58.46998c0,-0.39786 0.32253,-0.72039 0.72039,-0.72039c0.39786,0 0.72039,0.32253 0.72039,0.72039c0,0.39786 -0.32253,0.72039 -0.72039,0.72039c-0.39786,0 -0.72039,-0.32253 -0.72039,-0.72039z" fill="url(#color-12)" stroke="none" stroke-width="1" stroke-linecap="butt"/><path d="M190.18352,58.5207c0,-0.39786 0.32253,-0.72039 0.72039,-0.72039c0.39786,0 0.72039,0.32253 0.72039,0.72039c0,0.39786 -0.32253,0.72039 -0.72039,0.72039c-0.39786,0 -0.72039,-0.32253 -0.72039,-0.72039z" fill="url(#color-13)" stroke="none" stroke-width="1" stroke-linecap="butt"/><path d="M177.94209,46.06616v-0.96389h6.18923v0.96389z" fill="#262626" stroke="none" stroke-width="0" stroke-linecap="butt"/><path d="M180.63086,45.0008v-13.79892h0.91316v13.79892z" fill="#000000" stroke="none" stroke-width="0" stroke-linecap="butt"/><path d="M-72.9973,113.97298v-150h97v150z" fill="#505050" stroke="none" stroke-width="0" stroke-linecap="butt"/><path d="M-72.12969,402.55676v-150h97v150z" fill="#505050" stroke="none" stroke-width="0" stroke-linecap="butt"/><path d="M42.87027,323.06667l-34.33333,46" fill="none" stroke="#2f2f2f" stroke-width="1" stroke-linecap="round"/><path d="M-12.46304,-12.6l57,64.66667" fill="none" stroke="#2f2f2f" stroke-width="1" stroke-linecap="round"/><path d="M43.37031,229.56667l-52.83333,70.78641" fill="none" stroke="#2f2f2f" stroke-width="1" stroke-linecap="round"/><path d="M45.03696,133.56667l-57,-64.66667" fill="none" stroke="#2f2f2f" stroke-width="1" stroke-linecap="round"/></g></g></svg>