<svg version="1.1" xmlns="http://www.w3.org/2000/svg" xmlns:xlink="http://www.w3.org/1999/xlink" width="627.52433" height="482.65676" viewBox="0,0,627.52433,482.65676"><g transform="translate(72.99729,53.6)"><g data-paper-data="{&quot;isPaintingLayer&quot;:true}" fill-rule="nonzero" stroke-linejoin="miter" stroke-miterlimit="10" stroke-dasharray="" stroke-dashoffset="0" style="mix-blend-mode: normal"><path d="M-48.49999,375v-150h97v150z" fill="#6c6c6c" stroke="none" stroke-width="0" stroke-linecap="butt"/><path d="M-48.49999,135v-150h97v150z" fill="#6c6c6c" stroke="none" stroke-width="0" stroke-linecap="butt"/><path d="M431.50002,375v-150h97v150z" fill="#6c6c6c" stroke="none" stroke-width="0" stroke-linecap="butt"/><path d="M431.50002,135v-150h97v150z" fill="#6c6c6c" stroke="none" stroke-width="0" stroke-linecap="butt"/><path d="M-14,56.5v-83h508v83l-305.98236,-0.5l0.55129,56.24163l123.494,0.78928l-0.31139,23.37649l-122.93997,0.58769l-27.81107,0.77308l-0.98285,-81.26816z" fill="#6c6c6c" stroke="none" stroke-width="0" stroke-linecap="butt"/><path d="M-14,401.5v-83h508v83z" fill="#6c6c6c" stroke="none" stroke-width="0" stroke-linecap="butt"/><path d="M510.25002,227.25h-77v93.5h-387l-0.98472,-93.70599l-77.54508,-0.06472l1.0298,-92.22929l77.5,0.5v-79.5l2.5,-2h109.76763l1,84l29.55648,-0.35067l123.50736,-1.23228l-0.34677,-24.72365l-123.47835,0.79594l-0.73872,-58.48934h244.73238v80h81.5" fill="none" stroke="#818181" stroke-width="4.5" stroke-linecap="round"/><path d="M-72.99729,113.97298v-150h97v150z" fill="#505050" stroke="none" stroke-width="0" stroke-linecap="butt"/><path d="M455.58656,113.10541v-150h97v150z" fill="#505050" stroke="none" stroke-width="0" stroke-linecap="butt"/><path d="M-22.88107,29.4v-83h508v83h-309.10128l0.20006,91.24175l129.008,-0.20091l-0.01083,5.96575l-128.98049,0.54013l-6.1444,-0.00387l-0.57235,-97.54286z" fill="#505050" stroke="none" stroke-width="0" stroke-linecap="butt"/><path d="M4.01352,429.05676v-83h508v83z" fill="#505050" stroke="none" stroke-width="0" stroke-linecap="butt"/><path d="M457.52704,400.15946v-150h97v150z" fill="#505050" stroke="none" stroke-width="0" stroke-linecap="butt"/><path d="M-72.12971,402.55676v-150h97v150z" fill="#505050" stroke="none" stroke-width="0" stroke-linecap="butt"/><path d="M436.07078,323.29805l51.33333,55.16418" fill="none" stroke="#2f2f2f" stroke-width="1" stroke-linecap="round"/><path d="M42.87028,323.06667l-34.33333,46" fill="none" stroke="#2f2f2f" stroke-width="1" stroke-linecap="round"/><path d="M44.53695,52.06667l-57,-64.66667" fill="none" stroke="#2f2f2f" stroke-width="1" stroke-linecap="round"/><path d="M506.99837,70.06667l-71.33333,61" fill="none" stroke="#2f2f2f" stroke-width="1" stroke-linecap="round"/><path d="M437.01765,229.72838l62,62.5" fill="none" stroke="#2f2f2f" stroke-width="1" stroke-linecap="round"/><path d="M434.51765,50.72838l56.5,-56" fill="none" stroke="#2f2f2f" stroke-width="1" stroke-linecap="round"/><path d="M43.37029,229.56667l-52.83333,70.78641" fill="none" stroke="#2f2f2f" stroke-width="1" stroke-linecap="round"/><path d="M-11.96304,68.9l57,64.66667" fill="none" stroke="#2f2f2f" stroke-width="1" stroke-linecap="round"/></g></g></svg>