<svg version="1.1" xmlns="http://www.w3.org/2000/svg" xmlns:xlink="http://www.w3.org/1999/xlink" width="627.52433" height="482.65676" viewBox="0,0,627.52433,482.65676"><g transform="translate(72.9973,53.6)"><g data-paper-data="{&quot;isPaintingLayer&quot;:true}" fill-rule="nonzero" stroke-linejoin="miter" stroke-miterlimit="10" stroke-dasharray="" stroke-dashoffset="0" style="mix-blend-mode: normal"><path d="M433.89732,376.52973v-150h97v150z" fill="#6c6c6c" stroke="none" stroke-width="0" stroke-linecap="butt"/><path d="M-48.49999,375v-150h97v150z" fill="#6c6c6c" stroke="none" stroke-width="0" stroke-linecap="butt"/><path d="M-48.49999,135.86757v-150h97v150z" fill="#6c6c6c" stroke="none" stroke-width="0" stroke-linecap="butt"/><path d="M431.50001,135v-150h97v150z" fill="#6c6c6c" stroke="none" stroke-width="0" stroke-linecap="butt"/><path d="M-13.99999,57.36757v-83h508v83z" fill="#6c6c6c" stroke="none" stroke-width="0" stroke-linecap="butt"/><path d="M-13.99999,401.5v-83h508v83z" fill="#6c6c6c" stroke="none" stroke-width="0" stroke-linecap="butt"/><path d="M140.13243,321.5v-188h48v188z" fill="#6c6c6c" stroke="none" stroke-width="0" stroke-linecap="butt"/><path d="M291.00001,321.5v-188h48v188z" fill="#6c6c6c" stroke="none" stroke-width="0" stroke-linecap="butt"/><path d="M510.25001,227.25h-77v93.5l-93.64791,-0.12122l-1.19402,-186.30029l-47.29371,-0.10245l-0.00048,186.24658l-102.0579,-0.19916l-1.31135,-185.43024l-46.3808,0.15679l-0.5,185.75h-94.61382l-0.98472,-93.70599l-77.54508,-0.06472l1.0298,-92.22929l77.5,0.5v-79.5l2.5,-2h384v80h81.5" fill="none" stroke="#818181" stroke-width="4.5" stroke-linecap="round"/><path d="M-72.9973,113.97298v-150h97v150z" fill="#505050" stroke="none" stroke-width="0" stroke-linecap="butt"/><path d="M455.58651,113.10541v-150h97v150z" fill="#505050" stroke="none" stroke-width="0" stroke-linecap="butt"/><path d="M-22.88108,29.4v-83h508v83z" fill="#505050" stroke="none" stroke-width="0" stroke-linecap="butt"/><path d="M4.01351,429.05676v-83h508v83z" fill="#505050" stroke="none" stroke-width="0" stroke-linecap="butt"/><path d="M309.67569,372.27567v-217.49729h10.45888v217.4973z" fill="#505050" stroke="none" stroke-width="0" stroke-linecap="butt"/><path d="M160.24865,373.8054v-217.49729h10.45888v217.49729z" fill="#505050" stroke="none" stroke-width="0" stroke-linecap="butt"/><path d="M457.52703,400.15946v-150h97v150z" fill="#505050" stroke="none" stroke-width="0" stroke-linecap="butt"/><path d="M-72.12971,402.55676v-150h97v150z" fill="#505050" stroke="none" stroke-width="0" stroke-linecap="butt"/><path d="M487.40408,378.46223l-51.33333,-55.16418" fill="none" stroke="#2f2f2f" stroke-width="1" stroke-linecap="round"/><path d="M436.57075,323.79805l51.33333,55.16418" fill="none" stroke="#2f2f2f" stroke-width="1" stroke-linecap="round"/><path d="M42.87027,323.06667l-34.33333,46" fill="none" stroke="#2f2f2f" stroke-width="1" stroke-linecap="round"/><path d="M44.53694,52.06667l-57,-64.66667" fill="none" stroke="#2f2f2f" stroke-width="1" stroke-linecap="round"/><path d="M506.99835,70.06667l-71.33333,61" fill="none" stroke="#2f2f2f" stroke-width="1" stroke-linecap="round"/><path d="M437.01764,229.72838l62,62.5" fill="none" stroke="#2f2f2f" stroke-width="1" stroke-linecap="round"/><path d="M434.51764,50.72838l56.5,-56" fill="none" stroke="#2f2f2f" stroke-width="1" stroke-linecap="round"/><path d="M43.37027,229.56667l-52.83333,70.78641" fill="none" stroke="#2f2f2f" stroke-width="1" stroke-linecap="round"/><path d="M45.03695,133.56667l-57,-64.66667" fill="none" stroke="#2f2f2f" stroke-width="1" stroke-linecap="round"/></g></g></svg>