<svg version="1.1" xmlns="http://www.w3.org/2000/svg" xmlns:xlink="http://www.w3.org/1999/xlink" width="36.11536" height="44.61521" viewBox="0,0,36.11536,44.61521"><g transform="translate(-221.94233,-162.30261)"><g data-paper-data="{&quot;isPaintingLayer&quot;:true}" fill-rule="nonzero" stroke-linecap="butt" stroke-linejoin="miter" stroke-miterlimit="10" stroke-dasharray="" stroke-dashoffset="0" style="mix-blend-mode: normal"><path d="M228.54393,164.80262c7.52495,0 20.94335,0 24.4087,0c1.3447,0 2.60507,1.24523 2.60507,2.57736c0,3.63861 0,17.88336 0,24.85211c0,1.83357 -1.38247,2.96535 -2.82678,2.96535c-3.63317,0 -17.44157,0 -24.68583,0c-2.20441,0 -3.60275,-1.93423 -3.60275,-3.79675c0,-3.95721 0,-16.15536 0,-23.07844c0,-2.15342 1.61058,-3.51962 4.1016,-3.51962z" data-paper-data="{&quot;index&quot;:null}" fill="#000000" stroke="#fffdfd" stroke-width="5"/><path d="M232.15278,190.81797v-21.6359h15.69444v21.6359z" fill="#896300" stroke="none" stroke-width="0"/><path d="M232.15278,190.81797v-21.6359h1.69178v21.6359z" fill="#513a00" stroke="none" stroke-width="0"/><path d="M232.15278,190.81797v-1.43662h15.69444v1.43662z" fill="#513a00" stroke="none" stroke-width="0"/><path d="M232.23274,170.6187v-1.43662h15.53453v1.43662z" fill="#513a00" stroke="none" stroke-width="0"/><path d="M246.28044,190.81797v-21.6359h1.56678v21.6359z" fill="#513a00" stroke="none" stroke-width="0"/><path d="M241.56251,180.25004c0,-0.9665 0.7835,-1.75 1.75,-1.75c0.9665,0 1.75,0.7835 1.75,1.75c0,0.9665 -0.7835,1.75 -1.75,1.75c-0.9665,0 -1.75,-0.7835 -1.75,-1.75z" fill="#fff400" stroke="#ffa000" stroke-width="1"/><text transform="translate(227.01665,204.31792) scale(0.15757,0.15757)" font-size="40" xml:space="preserve" fill="#fffdfd" fill-rule="nonzero" stroke="none" stroke-width="1" stroke-linecap="butt" stroke-linejoin="miter" stroke-miterlimit="10" stroke-dasharray="" stroke-dashoffset="0" font-family="Handwriting" font-weight="normal" text-anchor="start" style="mix-blend-mode: normal"><tspan x="0" dy="0">Door Skip</tspan></text></g></g></svg>