<svg version="1.1" xmlns="http://www.w3.org/2000/svg" xmlns:xlink="http://www.w3.org/1999/xlink" width="2124.19048" height="1394" viewBox="0,0,2124.19048,1394"><defs><linearGradient x1="47.5" y1="192" x2="544.5" y2="192" gradientUnits="userSpaceOnUse" id="color-1"><stop offset="0" stop-color="#000000" stop-opacity="0"/><stop offset="1" stop-color="#000000"/></linearGradient></defs><g transform="translate(807.5,548)"><g data-paper-data="{&quot;isPaintingLayer&quot;:true}" fill-rule="nonzero" stroke="none" stroke-width="0" stroke-linecap="butt" stroke-linejoin="miter" stroke-miterlimit="10" stroke-dasharray="" stroke-dashoffset="0" style="mix-blend-mode: normal"><path d="M-807.5,846v-1394h2124.19048v1394zM221.16954,128.00615c-0.04819,0.86741 -0.03877,1.73449 0.01821,2.59997c-0.47641,0.95331 -0.92047,1.94597 -1.32011,2.99502c-3.11791,8.18451 -4.23127,19.31779 -1.85949,28.93845c0.42165,2.06001 1.09667,4.02773 1.99107,5.86915c1.81599,4.07222 4.44928,7.61562 8.04764,10.18501c1.65055,1.17856 3.5509,1.8293 5.54878,2.27397c1.39532,0.53199 2.85054,0.94262 4.35278,1.21894c-0.64485,0.75673 -1.20462,1.58393 -1.70059,2.46382c-3.58981,4.3283 -5.74784,9.88689 -5.74784,15.94952c0,1.76089 0.18206,3.47925 0.52837,5.1373c-0.14774,2.55372 0.72106,4.89804 2.11838,7.03584c-0.64441,0.78705 -1.24175,1.61412 -1.78772,2.47693c-8.20399,9.49936 -3.03004,27.21612 3.87661,35.84943c6.7304,8.41301 16.69434,16.06926 24.77297,23.30037c13.54212,12.12144 26.72634,24.9425 39.61417,37.75813c6.86681,6.82835 12.3838,14.89159 18.57897,22.33467c7.44462,8.94421 23.55593,21.73926 32.13503,27.70837c20.83017,14.49309 42.23643,27.50245 64.98288,38.75963c20.32606,10.05934 42.44108,16.48226 63.18584,25.53703c21.70932,9.47579 32.45537,15.45473 54.68267,21.30951c7.17306,1.88942 14.29939,5.23967 21.99893,3.33709c5.46024,-1.34925 9.91777,-4.27347 13.16794,-8.09046c8.4162,1.90395 18.93862,-0.85415 24.33514,-7.02159c5.01927,-5.73631 7.77573,-13.68853 7.80983,-21.43225c0.06056,-13.75016 0.15576,-28.85217 0.15576,-42.60246c0,-0.38867 -0.01141,-0.77578 -0.03309,-1.16143c4.86163,-3.52522 8.34547,-8.97594 9.53717,-16.12613c1.77005,-10.62033 -1.03359,-17.16168 -8.7337,-23.63236c-1.59207,-1.33787 -3.2366,-2.30205 -4.91868,-3.01322c0.01342,-9.15484 0.03207,-18.30968 -0.00747,-27.4644c-0.02139,-4.95276 -1.73223,-10.18103 -2,-14.91183c-0.35956,-6.35255 0.10807,-12.72636 0,-19.08817c-0.1183,-6.96367 -2.00506,-14.77153 -3.25126,-21.53554c-0.82472,-4.47636 -3.00214,-7.80989 -4.59349,-12.05568c-4.99811,-13.33515 -7.11148,-30.09903 -21.09732,-35.00215c0.03799,-23.46881 -0.01114,-46.93784 -0.05792,-70.40663c-0.02198,-11.02944 -4.74244,-21.91683 -5,-32.47549c-0.434,-17.79141 0.15576,-37.33027 0.15576,-55.12697c0,-6.25597 -1.69797,-15.08867 -2.54639,-21.30379c-0.27068,-1.98294 -1.45885,-3.97965 -1.60937,-5.90831c-0.80163,-10.27107 -2.14602,-19.85615 -6.63932,-29.36578c-0.51465,-1.08921 -1.05849,-2.17623 -1.63514,-3.24938c-0.63856,-2.04825 -1.5149,-4.06885 -2.63179,-6.0234c-2.13189,-3.7308 -5.74898,-6.39194 -9.81271,-8.10973c-2.31604,-1.35299 -4.89776,-2.32033 -7.78718,-2.7676c-4.64035,-0.71831 -8.89278,-0.16861 -12.61711,1.30144c-7.09436,1.39277 -15.11201,4.0624 -19.49847,6.6473c-3.87291,2.28226 -9.72986,2.77579 -14.13654,4.45453c-14.69558,5.59832 -29.73063,10.32388 -44.42757,16.06927c-5.22114,2.04107 -11.44216,2.22042 -16.91503,3.05099c-4.45522,0.67612 -8.59809,2.56112 -12.89398,3.78625c-4.59314,1.3099 -10.17668,2.15511 -14.85314,4.04207c-13.56526,5.47362 -28.03821,9.14366 -40.94414,16.09914c-2.65035,1.42837 -6.62495,1.7347 -9.53097,3.22258c-9.01506,4.61571 -18.28368,10.93268 -27.77675,14.6772c-14.07219,5.55076 -29.02378,10.54352 -38.90017,22.97971c-12.83336,16.15955 -30.19172,32.53777 -41.85146,50.34243c-6.55319,4.52481 -12.08406,11.05493 -12.479,18.16372z" fill="#000000"/><path d="M235.05199,184.46954l-34.28766,-48.38371l309.18368,-219.10655l34.28767,48.38371l-299.28721,212.09331c-1.7755,0.70573 -3.42812,1.59373 -4.88927,2.66184c-1.06187,0.77623 -1.95014,1.69649 -2.70971,2.72326z" fill="#000000"/><path d="M188.5,50.5v-58h213v58z" fill="#000000"/><path d="M229.5,84.5v-72h104v72z" fill="#000000"/><path d="M199.5,132.5v-81h85v81z" fill="#000000"/><path d="M166.5,205.5v-70h69v49.99757c-3.13956,4.17872 -5,9.37331 -5,15.00243c0,1.71233 0.17215,3.38445 0.50009,5z" fill="#000000"/><path d="M197.76433,223.36299l34.28766,-48.38371l309.18369,219.10655l-34.28767,48.38371z" data-paper-data="{&quot;index&quot;:null}" fill="#000000"/><path d="M201.5,405.5v-175h107v175z" fill="#000000"/><path d="M278.5,408.5v-126h79v126z" fill="#000000"/><path d="M342.5,416.5v-86h106v86z" fill="#000000"/><path d="M409.5,435.5v-52h79v52z" fill="#000000"/><path d="M449.5,453.5v-43h63v43z" fill="#000000"/><path d="M468.5,476.5v-85h194v85z" fill="#000000"/><path d="M527.5,514.5v-564h216v564z" fill="#000000"/><path d="M47.5,432.5v-481h497v481z" fill="url(#color-1)"/></g></g></svg>