<svg version="1.1" xmlns="http://www.w3.org/2000/svg" xmlns:xlink="http://www.w3.org/1999/xlink" width="444.51131" height="273.51351" viewBox="0,0,444.51131,273.51351"><g transform="translate(-17.5,-62.5)"><g data-paper-data="{&quot;isPaintingLayer&quot;:true}" fill-rule="nonzero" stroke-linecap="butt" stroke-linejoin="miter" stroke-miterlimit="10" stroke-dasharray="" stroke-dashoffset="0" style="mix-blend-mode: normal"><path d="M20,308.84684c0,-45.2544 0,-207.33984 0,-228.18018c0,-8.08687 7.48871,-15.66666 15.5,-15.66666c21.88226,0 364.26855,0 406.17798,0c11.02696,0 17.83333,8.31404 17.83333,17c0,21.84954 0,186.28047 0,229.84684c0,13.25709 -11.63228,21.66667 -22.83333,21.66667c-23.79831,0 -353.87652,0 -395.51131,0c-12.95046,0 -21.16666,-9.68594 -21.16666,-24.66667z" fill="#000000" stroke="#ffffff" stroke-width="5"/><text transform="translate(62.95002,96) scale(0.5,0.5)" font-size="40" xml:space="preserve" fill="#ffffff" fill-rule="nonzero" stroke="none" stroke-width="1" stroke-linecap="butt" stroke-linejoin="miter" stroke-miterlimit="10" stroke-dasharray="" stroke-dashoffset="0" font-family="Sans Serif" font-weight="normal" text-anchor="start" style="mix-blend-mode: normal"><tspan x="0" dy="0">fun settings</tspan></text><text transform="translate(322.95002,96) scale(0.5,0.5)" font-size="40" xml:space="preserve" fill="#ffffff" fill-rule="nonzero" stroke="none" stroke-width="1" stroke-linecap="butt" stroke-linejoin="miter" stroke-miterlimit="10" stroke-dasharray="" stroke-dashoffset="0" font-family="Sans Serif" font-weight="normal" text-anchor="start" style="mix-blend-mode: normal"><tspan x="0" dy="0">settings</tspan></text></g></g></svg>