<svg version="1.1" xmlns="http://www.w3.org/2000/svg" xmlns:xlink="http://www.w3.org/1999/xlink" width="37.6" height="37.6" viewBox="0,0,37.6,37.6"><defs><radialGradient cx="240" cy="180" r="18.8" gradientUnits="userSpaceOnUse" id="color-1"><stop offset="0" stop-color="#e99300"/><stop offset="1" stop-color="#e99300" stop-opacity="0"/></radialGradient><linearGradient x1="238.70745" y1="176.50532" x2="238.70745" y2="183.49468" gradientUnits="userSpaceOnUse" id="color-2"><stop offset="0" stop-color="#252525"/><stop offset="1" stop-color="#151515"/></linearGradient><linearGradient x1="247.30532" y1="178.2766" x2="247.30532" y2="181.77128" gradientUnits="userSpaceOnUse" id="color-3"><stop offset="0" stop-color="#cecece"/><stop offset="1" stop-color="#6f6f6f"/></linearGradient><linearGradient x1="244.11797" y1="176.46828" x2="244.11797" y2="183.49468" gradientUnits="userSpaceOnUse" id="color-4"><stop offset="0" stop-color="#ba6c00"/><stop offset="1" stop-color="#6e4001"/></linearGradient></defs><g transform="translate(-221.2,-161.2)"><g data-paper-data="{&quot;isPaintingLayer&quot;:true}" fill-rule="nonzero" stroke-linecap="butt" stroke-linejoin="miter" stroke-miterlimit="10" stroke-dasharray="" stroke-dashoffset="0" style="mix-blend-mode: normal"><path d="M221.2,180c0,-10.38295 8.41705,-18.8 18.8,-18.8c10.38295,0 18.8,8.41705 18.8,18.8c0,10.38295 -8.41705,18.8 -18.8,18.8c-10.38295,0 -18.8,-8.41705 -18.8,-18.8z" fill="url(#color-1)" stroke="none" stroke-width="0"/><path d="M231,183.49468c0,0 -0.55,-0.82099 -0.55,-3.64468c0,-2.34079 0.55,-3.34468 0.55,-3.34468c0,0 12.42875,0 14.425,0c0.52294,0 0.98989,0.62762 0.98989,1.19468c0,1.40958 0,3.73974 0,4.6c0,0.54774 -0.87078,1.19468 -1.18989,1.19468c-2.12746,0 -14.225,0 -14.225,0z" fill="url(#color-2)" stroke="none" stroke-width="0"/><path d="M246.51064,181.77128v-3.49468c0,0 0.51118,0 0.77222,0c0.26853,0 0.81714,0.39064 0.81714,0.87775c0,0.58704 0,1.3142 0,1.66667c0,0.43665 -0.58012,0.95026 -0.85418,0.95026c-0.25425,0 -0.73518,0 -0.73518,0z" fill="url(#color-3)" stroke="none" stroke-width="0"/><text transform="translate(232.55763,180.64628) scale(0.06813,0.06813)" font-size="40" xml:space="preserve" fill="#f99c00" fill-rule="nonzero" stroke="#fc9e00" stroke-width="2" stroke-linecap="butt" stroke-linejoin="miter" stroke-miterlimit="10" stroke-dasharray="" stroke-dashoffset="0" font-family="Handwriting" font-weight="normal" text-anchor="start" style="mix-blend-mode: normal"><tspan x="0" dy="0">Battery</tspan></text><path d="M241.72104,183.49468c0,0 -0.17104,-0.82535 -0.17104,-3.66399c0,-2.35319 0.17104,-3.3624 0.17104,-3.3624c0,0 3.86519,0 4.486,0c0.16263,0 0.30784,0.63095 0.30784,1.20101c0,1.41705 0,3.75956 0,4.62438c0,0.55065 -0.2708,1.20101 -0.37004,1.20101c-0.66161,0 -4.42381,0 -4.42381,0z" fill="url(#color-4)" stroke="none" stroke-width="0"/></g></g></svg>