<svg version="1.1" xmlns="http://www.w3.org/2000/svg" xmlns:xlink="http://www.w3.org/1999/xlink" width="163.37539" height="29.7543" viewBox="0,0,163.37539,29.7543"><g transform="translate(-104.48366,-164.38851)"><g data-paper-data="{&quot;isPaintingLayer&quot;:true}" fill-rule="nonzero" stroke-linecap="butt" stroke-linejoin="miter" stroke-miterlimit="10" stroke-dasharray="" stroke-dashoffset="0" style="mix-blend-mode: normal"><path d="M215.89869,179.96551c-0.15643,-7.56409 0.38373,-10.80256 24.10518,-10.42728c23.24183,0.36769 24.02826,2.47508 24.10518,10.50421c0.07766,8.10568 0.07169,9.60509 -24.10518,10.35036c-24.49879,0.75519 -23.94872,-2.86181 -24.10518,-10.42729z" fill="none" stroke="#ffffff" stroke-width="7.5"/><path d="M215.89869,179.96551c-0.15643,-7.56409 0.38373,-10.80256 24.10518,-10.42728c23.24183,0.36769 24.02826,2.47508 24.10518,10.50421c0.07766,8.10568 0.07169,9.60509 -24.10518,10.35036c-24.49879,0.75519 -23.94872,-2.86181 -24.10518,-10.42729z" fill="#ff0000" stroke="#000000" stroke-width="2.5"/><path d="M216.31539,179.76923c0,-5.13625 4.16375,-9.3 9.3,-9.3c5.13625,0 9.3,4.16375 9.3,9.3c0,5.13625 -4.16375,9.3 -9.3,9.3c-5.13625,0 -9.3,-4.16375 -9.3,-9.3z" fill="#ffffff" stroke="#000000" stroke-width="2.5"/><text transform="translate(105.21723,183.21693) scale(0.48905,0.48905)" font-size="40" xml:space="preserve" fill="#ffffff" fill-rule="nonzero" stroke="#ffffff" stroke-width="3" stroke-linecap="butt" stroke-linejoin="miter" stroke-miterlimit="10" stroke-dasharray="" stroke-dashoffset="0" font-family="Handwriting" font-weight="normal" text-anchor="start" style="mix-blend-mode: normal"><tspan x="0" dy="0">Mobile Mode</tspan></text></g></g></svg>